<?xml version="1.0" standalone="no"?>
<!DOCTYPE svg PUBLIC "-//W3C//DTD SVG 20010904//EN"
 "http://www.w3.org/TR/2001/REC-SVG-20010904/DTD/svg10.dtd">
<svg version="1.0" xmlns="http://www.w3.org/2000/svg"
 width="1850.000000pt" height="1850.000000pt" viewBox="0 0 1850.000000 1850.000000"
 preserveAspectRatio="xMidYMid meet">
<metadata>
Created by potrace 1.11, written by Peter Selinger 2001-2013
</metadata>
<g transform="translate(0.000000,1850.000000) scale(0.100000,-0.100000)"
fill="#000000" stroke="none">
<path d="M8035 16988 c-17 -14 -43 -28 -60 -32 -16 -4 -54 -23 -85 -42 -40
-25 -67 -34 -98 -34 -24 0 -55 -6 -71 -14 -34 -18 -90 -82 -103 -118 -12 -33
-74 -75 -129 -87 -35 -8 -62 -29 -158 -124 -151 -149 -172 -167 -194 -167 -9
0 -45 -8 -79 -17 -52 -15 -71 -27 -122 -79 -34 -34 -81 -86 -106 -117 -25 -30
-57 -62 -72 -71 -34 -21 -45 -41 -69 -124 -10 -36 -27 -75 -37 -86 -30 -35
-68 -99 -75 -128 -4 -14 -18 -39 -30 -55 -13 -15 -40 -60 -59 -99 -38 -74 -64
-116 -123 -198 -19 -27 -35 -57 -35 -67 0 -10 -12 -44 -26 -76 -17 -38 -27
-84 -31 -133 -3 -41 -11 -86 -18 -100 -7 -14 -16 -45 -19 -70 -4 -25 -13 -61
-20 -80 -24 -62 -36 -129 -36 -195 0 -35 -5 -87 -11 -115 -9 -42 -8 -54 3 -68
12 -14 13 -66 9 -313 l-6 -296 -32 -34 c-23 -23 -33 -42 -33 -63 0 -28 19 -74
20 -51 1 6 6 -1 11 -15 7 -17 12 -21 18 -12 10 17 51 -28 53 -59 1 -13 1 -79
0 -146 -2 -114 -4 -123 -27 -152 -32 -37 -55 -175 -55 -320 0 -81 4 -104 25
-149 14 -30 25 -65 25 -77 0 -13 5 -27 10 -30 6 -3 10 -14 10 -23 0 -19 31
-81 55 -109 8 -10 21 -27 29 -38 15 -19 15 -19 16 7 0 15 4 29 10 33 5 3 7 11
4 18 -6 17 32 52 41 38 3 -6 19 -11 35 -11 37 0 58 -32 44 -70 -4 -12 -7 -12
-13 -1 -6 9 -18 11 -35 7 -30 -7 -35 -36 -6 -36 11 0 20 -7 20 -15 0 -8 3 -15
8 -15 4 0 13 -12 19 -27 10 -21 10 -29 0 -36 -8 -6 -6 -7 7 -3 15 5 17 2 13
-13 -5 -20 10 -31 43 -31 33 0 44 -33 50 -154 0 -5 7 -3 15 4 20 17 41 -1 50
-42 6 -23 3 -33 -9 -40 -23 -13 -20 -24 17 -75 27 -38 32 -55 33 -102 0 -64 9
-83 58 -130 20 -19 36 -43 36 -54 0 -10 9 -39 20 -65 25 -59 50 -182 50 -244
0 -26 4 -58 10 -72 5 -14 12 -88 15 -163 6 -143 6 -143 -39 -206 -18 -26 -18
-27 5 -74 13 -27 27 -52 31 -58 142 -183 232 -278 354 -371 68 -52 112 -72 85
-40 -7 8 -14 35 -16 60 -3 38 0 46 17 52 27 8 58 36 58 51 0 7 7 13 16 13 14
0 16 8 10 59 -6 52 -5 61 12 70 21 11 42 -2 42 -27 0 -7 5 -10 10 -7 6 3 10 1
10 -4 0 -6 7 -11 15 -11 8 0 15 -4 15 -9 0 -10 84 -41 111 -41 20 0 96 -37
105 -51 6 -11 88 -49 104 -49 6 0 9 -4 6 -8 -3 -5 -1 -24 4 -44 13 -47 67 -74
115 -58 18 6 36 18 39 26 4 11 10 12 26 4 11 -5 29 -14 40 -20 11 -6 35 -10
53 -10 19 0 54 -10 78 -23 31 -17 55 -22 82 -19 37 4 62 -3 166 -50 32 -14 47
-16 55 -8 8 8 4 17 -16 32 -16 11 -28 26 -28 34 0 15 16 19 22 6 2 -4 30 -21
62 -37 34 -17 68 -43 79 -61 20 -30 21 -30 39 -12 18 18 58 25 58 10 0 -10 45
-32 65 -32 8 0 15 9 15 19 0 23 42 39 110 42 88 4 90 3 89 -38 0 -21 1 -51 3
-67 3 -25 -3 -32 -37 -50 -40 -21 -40 -21 -37 -76 4 -73 12 -110 23 -110 5 0
9 -9 9 -19 0 -17 4 -19 32 -10 18 5 38 9 44 9 19 0 3 -49 -17 -55 -28 -9 -23
-25 7 -25 15 0 33 8 40 18 12 16 14 16 31 0 16 -17 16 -18 0 -18 -23 0 -22
-17 3 -32 11 -7 20 -21 20 -30 0 -10 7 -18 15 -18 8 0 15 4 15 10 0 15 52 36
80 32 15 -2 33 -16 45 -35 22 -34 62 -48 76 -25 6 8 8 -4 7 -32 -1 -43 19 -92
47 -113 6 -4 1 -15 -15 -28 -23 -20 -25 -20 -32 -2 -5 10 -5 0 -2 -24 4 -32 2
-47 -11 -59 -9 -10 -14 -26 -12 -36 3 -11 -1 -38 -9 -61 -9 -23 -13 -55 -9
-72 3 -16 1 -50 -4 -75 -6 -25 -15 -71 -22 -102 -7 -32 -16 -58 -21 -58 -4 0
-8 -10 -8 -22 -1 -13 -7 -34 -15 -48 -8 -14 -14 -37 -15 -52 0 -32 -9 -58 -20
-58 -10 0 -21 75 -25 168 -2 42 -10 83 -18 95 -8 12 -17 38 -21 57 -4 19 -11
44 -15 55 -40 97 -47 108 -86 134 -72 48 -90 45 -37 -8 28 -27 54 -64 64 -91
48 -137 67 -212 72 -290 25 -426 37 -545 56 -564 6 -6 17 10 30 40 11 27 25
58 31 68 6 10 31 58 56 105 25 47 57 100 70 116 14 17 44 62 67 102 23 40 53
85 66 100 21 24 24 37 22 84 -1 38 7 83 24 140 17 54 31 132 39 219 7 74 20
180 30 235 9 55 18 165 19 245 3 156 13 248 28 267 6 7 5 27 -2 51 -5 22 -10
60 -10 84 1 23 -2 78 -6 122 -3 45 -2 94 4 115 5 20 17 77 27 126 21 116 38
152 119 259 93 121 141 197 242 382 183 336 209 403 249 644 23 136 24 168 24
541 0 375 1 398 20 454 12 33 21 68 21 80 0 11 12 43 25 70 22 44 25 63 25
160 0 88 -3 115 -17 135 -16 22 -17 71 -18 565 l0 540 -27 130 c-16 72 -39
172 -53 223 -14 51 -25 104 -25 118 0 13 -22 77 -49 142 -54 128 -70 185 -100
339 -23 123 -98 305 -150 366 -20 23 -73 89 -118 147 -153 197 -318 345 -603
542 -119 82 -195 123 -277 147 -35 11 -79 31 -97 45 -19 14 -54 28 -77 32 -24
4 -50 12 -58 18 -7 6 -76 13 -152 17 -97 4 -143 10 -155 20 -10 8 -54 17 -108
21 -50 4 -118 10 -151 13 -55 6 -64 5 -90 -17z m705 -1231 c0 -30 33 -61 58
-55 15 4 17 0 14 -23 -2 -16 -1 -40 2 -54 5 -21 12 -25 45 -25 25 0 41 -5 45
-15 3 -8 11 -15 18 -15 8 0 21 -8 29 -18 15 -17 15 -20 1 -29 -18 -11 -8 -33
14 -33 9 0 14 10 14 27 l0 27 40 -39 c22 -21 40 -45 40 -53 0 -25 -39 -50 -96
-63 -30 -7 -57 -16 -60 -21 -3 -5 -17 3 -30 17 -21 23 -29 25 -57 19 -17 -4
-35 -8 -39 -8 -3 -1 -10 -4 -14 -8 -4 -5 -15 -8 -24 -8 -10 0 -23 -6 -29 -14
-12 -14 -57 -10 -67 5 -3 5 -18 9 -35 9 -19 0 -29 5 -29 15 0 23 -16 18 -34
-10 -15 -22 -22 -24 -59 -19 -74 10 -87 14 -87 30 0 21 -24 28 -50 14 -18 -10
-21 -9 -15 1 6 9 2 10 -16 6 -13 -4 -32 -7 -41 -7 -10 0 -18 -7 -18 -15 0 -8
-4 -15 -10 -15 -15 0 -80 72 -74 82 10 15 -40 4 -52 -12 -8 -9 -27 -13 -58
-11 -35 2 -46 -1 -46 -12 0 -19 -40 -30 -57 -16 -15 13 4 49 27 50 10 0 8 3
-5 9 -30 13 -88 11 -108 -4 -9 -7 -28 -11 -42 -8 -30 5 -29 1 -10 46 15 35 30
46 37 26 5 -15 67 -19 102 -8 17 6 48 23 68 39 20 16 42 29 48 29 6 0 13 7 17
16 3 9 12 13 21 9 10 -4 23 3 35 17 14 17 17 19 13 5 -3 -11 -2 -16 4 -12 6 3
10 19 10 35 0 21 6 29 23 33 37 8 163 0 185 -12 27 -15 32 -14 32 4 0 10 10
15 34 15 18 0 51 7 72 16 21 9 68 20 104 25 36 5 72 16 80 24 21 21 30 19 30
-8z m-431 -23 c46 -10 40 -34 -9 -34 -33 0 -40 3 -40 20 0 22 3 23 49 14z
m591 -74 c0 -5 -18 -10 -40 -10 -22 0 -40 5 -40 10 0 6 18 10 40 10 22 0 40
-4 40 -10z m240 -257 c0 -17 6 -23 23 -23 19 -1 20 -2 5 -10 -33 -20 -103 38
-84 69 12 19 56 -9 56 -36z m-415 -93 c-4 -7 10 -9 41 -7 61 6 84 -1 84 -24 0
-10 5 -21 10 -24 15 -9 12 -35 -3 -35 -7 0 -18 12 -24 28 -10 25 -11 24 -12
-20 -1 -51 -13 -61 -33 -28 -7 11 -21 20 -30 20 -10 0 -18 5 -18 11 0 5 -4 7
-10 4 -5 -3 -10 -15 -10 -26 0 -23 -32 -26 -50 -4 -7 8 -20 15 -28 15 -23 0
17 29 41 30 15 0 20 16 16 46 0 4 5 11 13 15 17 11 20 11 13 -1z m-389 -201
c66 0 164 -25 164 -41 0 -5 6 -8 14 -8 7 0 27 -7 42 -15 37 -19 93 -19 118 0
28 21 105 19 130 -3 29 -24 96 -54 96 -42 0 6 5 10 11 10 6 0 34 11 62 25 27
14 57 25 66 23 9 -1 32 3 51 9 54 18 85 11 85 -18 0 -15 8 -28 23 -34 12 -5
22 -15 22 -21 0 -8 13 -10 38 -7 28 4 44 0 65 -17 28 -22 37 -59 15 -61 -10 0
-10 -2 0 -6 6 -2 12 -19 12 -36 l1 -32 18 23 c26 30 91 32 91 2 0 -17 -7 -20
-40 -20 -22 0 -40 -4 -40 -10 0 -5 -13 -10 -30 -10 -16 0 -30 -4 -30 -9 0 -13
26 -32 33 -24 4 3 7 1 7 -4 0 -6 -18 -14 -40 -18 -22 -4 -40 -11 -40 -16 0 -5
-22 -9 -48 -9 -41 0 -53 -5 -81 -32 -18 -18 -37 -43 -42 -55 -10 -27 -37 -30
-55 -5 -32 41 -39 -37 -9 -98 17 -36 8 -50 -31 -50 -27 0 -34 4 -34 19 0 11
-5 23 -11 26 -5 4 -14 17 -19 30 -8 21 -12 22 -34 12 -14 -7 -35 -29 -48 -49
-13 -21 -26 -38 -29 -38 -4 0 -10 -12 -13 -26 -4 -15 -14 -33 -21 -41 -8 -8
-15 -23 -15 -33 0 -10 -12 -28 -27 -40 l-27 -21 -25 25 c-23 24 -24 26 -8 44
9 10 17 22 17 25 0 14 -27 6 -48 -13 -51 -48 -124 -48 -140 0 -7 18 -25 35
-55 49 -25 12 -51 29 -57 37 -11 12 -7 14 24 14 33 0 36 2 36 30 0 17 4 30 9
30 4 0 8 12 8 28 0 15 3 42 8 60 6 26 4 32 -8 32 -9 0 -31 14 -49 32 l-33 32
-3 -29 c-5 -47 -17 -49 -38 -6 -13 28 -22 37 -31 30 -8 -7 -16 0 -28 25 -21
45 -49 63 -111 71 -27 4 -88 16 -136 27 -72 16 -92 25 -113 49 -13 17 -29 28
-35 24 -5 -3 -17 -2 -27 3 -14 9 -14 11 6 21 12 7 25 10 30 7 4 -3 25 13 46
34 30 31 42 37 52 28 10 -8 17 -8 25 0 7 7 20 12 30 12 10 0 18 6 18 14 0 19
33 29 68 22 18 -4 37 0 57 14 18 12 32 15 36 9 3 -6 37 -10 75 -10z m-336 -39
c0 -5 -7 -10 -16 -10 -8 0 -12 5 -9 10 3 6 10 10 16 10 5 0 9 -4 9 -10z m1400
-161 c0 -5 -4 -9 -10 -9 -5 0 -10 7 -10 16 0 8 5 12 10 9 6 -3 10 -10 10 -16z
m-1485 -9 c3 -6 -4 -10 -17 -10 -18 0 -20 2 -8 10 19 12 18 12 25 0z m416
-205 c-1 -15 -24 -12 -29 3 -3 9 2 13 12 10 10 -1 17 -7 17 -13z m-421 -45 c8
-12 110 -61 110 -53 0 4 5 2 12 -5 15 -15 59 -15 91 -1 19 9 31 7 57 -6 19
-10 42 -14 57 -10 19 4 33 -2 60 -25 l35 -31 25 23 c20 19 25 20 33 8 23 -36
1 -74 -35 -59 -11 4 -28 8 -39 8 -15 1 -12 -4 12 -26 16 -16 37 -32 46 -38 11
-7 17 -30 20 -73 5 -59 3 -65 -25 -94 -16 -17 -29 -41 -29 -53 0 -28 -24 -39
-41 -19 -10 12 -10 22 0 50 10 29 10 38 -6 64 -9 16 -20 30 -24 30 -4 0 -9 10
-13 23 -3 13 -34 54 -69 91 l-64 66 -69 7 c-38 3 -74 10 -80 14 -7 6 -16 0
-24 -16 -7 -14 -19 -25 -26 -25 -6 0 -15 -7 -18 -16 -6 -15 -19 -16 -104 -10
-53 4 -99 11 -100 17 -3 6 -9 6 -18 -2 -8 -7 -29 -9 -51 -5 -21 4 -67 9 -103
12 -35 3 -67 7 -69 10 -6 6 57 64 70 64 5 0 9 6 9 13 0 8 11 19 24 25 21 9 23
8 19 -9 -8 -29 28 -24 80 11 25 17 53 30 63 30 11 0 25 4 32 8 15 10 145 11
152 2z m305 -60 c3 -5 1 -10 -4 -10 -6 0 -11 5 -11 10 0 6 2 10 4 10 3 0 8 -4
11 -10z m1463 -85 c23 -8 30 -40 10 -48 -8 -2 -1 -15 20 -33 57 -51 38 -74
-41 -48 -28 10 -74 19 -102 21 -27 2 -63 5 -80 8 -16 3 -50 8 -75 11 -25 4
-51 11 -58 17 -8 6 -28 10 -45 9 -18 -1 -39 2 -47 8 -21 13 28 31 53 18 13 -7
30 -3 61 11 30 15 63 21 117 22 41 0 83 4 94 8 22 9 58 7 93 -4z m-2395 -197
c7 -20 -12 -60 -41 -91 -18 -19 -23 -30 -15 -35 16 -10 -7 -39 -44 -55 -43
-17 -123 -10 -123 12 0 16 41 41 67 41 7 0 13 8 13 18 0 26 30 83 40 77 5 -3
11 -1 15 5 3 5 14 10 24 10 10 0 24 7 31 15 15 18 27 19 33 3z m774 -87 c40
-24 50 -34 46 -50 -10 -39 -176 -71 -189 -37 -3 7 2 30 10 51 9 21 16 48 16
60 0 29 19 37 45 19 11 -7 43 -27 72 -43z m-267 23 c0 -8 -4 -12 -10 -9 -5 3
-10 10 -10 16 0 5 5 9 10 9 6 0 10 -7 10 -16z m1300 1 c0 -25 -23 -65 -37 -65
-16 0 -16 0 2 44 15 36 35 48 35 21z m-1510 -43 c0 -14 -11 -21 -26 -15 -21 8
-17 23 6 23 11 0 20 -4 20 -8z m1555 -12 c3 -5 1 -10 -4 -10 -6 0 -11 5 -11
10 0 6 2 10 4 10 3 0 8 -4 11 -10z m151 2 c6 -4 14 -33 17 -64 l6 -58 -35 0
c-33 0 -74 28 -74 50 0 6 -9 10 -20 10 -11 0 -20 5 -20 11 0 6 7 8 16 5 10 -4
29 5 50 24 37 32 43 34 60 22z m-973 -35 c10 -4 16 -3 12 2 -3 5 -1 13 5 16 6
4 10 3 9 -2 -2 -4 3 -20 10 -34 15 -31 1 -66 -44 -112 -31 -30 -45 -34 -45
-13 0 18 -40 32 -49 18 -4 -8 -11 -8 -21 -1 -13 9 -12 12 3 22 10 7 25 17 33
22 7 6 16 33 18 60 2 28 4 52 5 54 1 2 11 -3 24 -11 12 -8 30 -17 40 -21z
m792 6 c-4 -10 -12 -33 -17 -52 -12 -42 3 -59 82 -90 59 -23 76 -24 180 -18
75 4 130 -12 130 -40 1 -18 81 -61 163 -87 23 -7 22 -39 -3 -61 -30 -27 -24
-47 20 -75 22 -13 40 -28 40 -32 0 -13 -135 -9 -148 4 -9 9 -12 9 -12 0 0 -7
-9 -3 -20 8 -11 11 -29 20 -40 20 -15 0 -20 7 -20 29 0 27 -5 31 -52 46 -29
10 -60 23 -68 30 -8 7 -28 16 -45 19 -50 9 -75 18 -75 27 0 5 -12 9 -27 9 -19
0 -46 16 -82 49 -54 48 -54 49 -57 110 -2 34 0 59 5 57 4 -3 13 11 20 30 7 18
17 34 23 34 6 0 7 -7 3 -17z m356 -16 c-1 -12 -15 -9 -19 4 -3 6 1 10 8 8 6
-3 11 -8 11 -12z m227 -17 c7 0 14 -11 18 -25 8 -32 -19 -65 -53 -65 -27 0
-28 2 -7 42 9 18 13 41 10 57 -6 23 -5 24 7 9 8 -10 19 -18 25 -18z m-2550
-49 c34 -14 42 -35 16 -45 -8 -3 -13 -10 -10 -14 3 -5 2 -22 -3 -38 l-8 -29
-21 35 c-11 19 -28 43 -38 52 -16 17 -16 19 1 38 10 11 21 19 24 17 3 -2 21
-9 39 -16z m706 -26 c26 -14 66 -28 89 -31 41 -7 86 -43 87 -71 0 -6 6 -14 13
-17 10 -5 10 -7 0 -12 -7 -3 -13 -10 -13 -16 0 -21 -36 -43 -73 -45 -24 -1
-43 -8 -52 -19 -9 -12 -27 -18 -59 -19 -26 0 -50 -5 -54 -10 -20 -28 -223 -48
-237 -24 -4 5 -23 9 -43 9 -31 0 -41 5 -55 30 -10 17 -22 30 -27 30 -4 0 -15
3 -24 6 -10 4 -16 1 -16 -8 0 -7 -21 -21 -47 -30 -45 -16 -48 -16 -64 1 -16
17 -16 20 7 47 13 16 23 23 24 17 0 -23 30 -14 42 12 14 32 4 43 -18 20 -17
-16 -18 -16 -26 5 -11 29 -10 29 49 36 38 5 53 3 66 -10 9 -10 27 -18 39 -19
13 0 26 -5 29 -10 8 -11 85 -15 95 -4 4 4 -2 20 -14 37 -28 38 -20 56 29 64
22 4 59 15 82 25 85 39 108 39 171 6z m-300 -40 c-4 -8 -10 -13 -15 -10 -4 3
-6 12 -3 20 4 8 10 13 15 10 4 -3 6 -12 3 -20z m416 -164 c0 -6 -4 -13 -10
-16 -5 -3 -10 1 -10 9 0 9 5 16 10 16 6 0 10 -4 10 -9z m-720 -65 c0 -3 -4 -8
-10 -11 -5 -3 -10 -1 -10 4 0 6 5 11 10 11 6 0 10 -2 10 -4z m978 -234 c-5
-20 -20 -57 -33 -82 -31 -59 -38 -116 -25 -196 13 -78 7 -102 -27 -115 -14 -5
-27 -18 -30 -28 -3 -12 -17 -21 -40 -26 -49 -9 -67 -29 -59 -65 6 -34 -4 -37
-61 -21 -23 7 -37 5 -53 -6 -13 -9 -25 -12 -29 -6 -3 5 -14 13 -25 16 -12 5
-17 14 -13 28 4 15 2 19 -10 15 -8 -3 -19 -6 -24 -6 -5 0 -9 -5 -9 -11 0 -16
-95 -106 -120 -114 -11 -3 -20 -12 -20 -19 0 -6 -20 -20 -45 -31 -25 -10 -49
-23 -53 -29 -10 -15 -49 -36 -67 -36 -8 0 -15 -4 -15 -10 0 -5 -6 -10 -13 -10
-7 0 -26 -13 -42 -30 -16 -16 -31 -30 -34 -30 -10 0 -7 94 3 108 4 7 6 15 3
18 -8 9 -54 -15 -61 -31 -3 -9 -10 -14 -15 -11 -11 7 -2 46 10 46 5 0 9 13 9
30 0 20 -8 35 -25 46 -21 14 -25 24 -25 64 0 27 5 50 11 52 5 2 13 24 16 48 4
25 12 50 19 55 7 6 14 28 16 49 3 43 23 59 33 27 3 -12 12 -21 20 -21 19 0 27
30 10 36 -9 4 -15 19 -15 35 0 27 2 28 20 17 29 -18 54 1 58 43 l4 33 -21 -24
c-19 -24 -21 -24 -38 -7 -16 16 -17 19 -1 45 17 28 22 29 96 31 30 1 42 5 42
16 0 8 -7 15 -15 15 -19 0 -19 14 -1 29 16 14 19 11 35 -41 7 -21 16 -38 21
-38 5 0 15 19 23 43 9 23 16 34 16 25 1 -24 17 -23 23 0 4 15 19 20 69 25 41
5 65 3 69 -4 12 -19 64 -6 75 19 8 18 18 22 54 22 26 0 48 6 55 14 13 18 58
23 108 12 30 -7 44 -4 73 14 19 12 35 18 35 14 0 -4 5 -3 12 4 22 22 37 -4 26
-46z m600 25 c41 -12 61 -33 78 -79 3 -10 10 -16 14 -13 4 3 13 -9 20 -25 11
-26 10 -59 -4 -151 -5 -34 -27 -69 -44 -69 -7 0 -23 -5 -35 -12 -30 -16 -127
-10 -149 10 -10 8 -18 28 -18 44 0 15 -9 37 -20 48 -11 11 -29 40 -41 65 -12
25 -25 45 -30 45 -13 0 -11 44 3 75 7 16 19 25 34 25 13 0 33 8 44 18 19 16
55 28 90 31 8 0 34 -5 58 -12z m-2477 -28 c-8 -22 -10 -22 -16 -5 -5 11 -3 21
6 26 19 12 21 7 10 -21z m93 -114 c3 -9 1 -25 -4 -35 -6 -11 -15 -30 -21 -41
-16 -32 3 -43 31 -19 13 11 27 20 33 20 12 0 0 -121 -14 -134 -5 -6 -9 -32 -9
-59 0 -27 -7 -61 -16 -76 -17 -29 -82 -60 -93 -45 -10 14 -87 54 -104 54 -9 0
-20 7 -25 17 -9 15 -6 32 23 159 2 11 14 31 26 45 11 13 24 29 27 35 8 13 122
94 133 94 4 0 10 -7 13 -15z m2893 -15 c14 -11 36 -20 48 -20 14 0 25 -7 28
-20 5 -21 41 -28 52 -10 11 17 22 11 35 -20 13 -32 76 -75 85 -59 9 14 25 11
25 -5 0 -20 26 -68 36 -64 7 3 26 -47 38 -104 4 -19 13 -28 25 -28 10 0 21 -7
25 -15 3 -8 1 -15 -5 -15 -7 0 -10 -17 -7 -45 2 -25 0 -45 -4 -45 -5 0 -8 -11
-8 -25 0 -15 6 -25 14 -25 20 0 29 -35 16 -60 -6 -11 -7 -20 -3 -20 4 0 -4
-10 -16 -22 -18 -16 -28 -19 -40 -11 -11 7 -21 7 -32 0 -12 -8 -28 -5 -60 10
-24 11 -56 23 -71 27 -15 3 -35 18 -45 32 -18 29 -87 76 -117 81 -28 5 -40 17
-55 59 -10 28 -11 39 -2 42 7 2 6 10 -4 25 -8 12 -15 29 -15 39 0 10 -5 18
-11 18 -7 0 -8 16 -3 53 10 67 7 118 -9 157 -8 17 -11 44 -9 60 4 26 9 30 34
30 16 0 41 -9 55 -20z m168 1 c7 -12 -31 -25 -45 -16 -5 3 -10 10 -10 16 0 12
47 12 55 0z m-1135 -73 c0 -4 -9 -8 -19 -8 -23 0 -34 23 -18 39 9 9 15 8 24
-6 7 -9 13 -20 13 -25z m-990 17 c-7 -8 -25 -15 -41 -15 -19 0 -29 -5 -29 -15
0 -8 -5 -15 -11 -15 -6 0 -8 6 -5 13 3 6 9 20 12 30 5 12 17 17 46 17 35 0 39
-2 28 -15z m1030 1 c0 -8 -4 -18 -10 -21 -5 -3 -10 3 -10 14 0 12 5 21 10 21
6 0 10 -6 10 -14z m-5 -156 c0 -47 -32 -53 -74 -12 -17 16 -31 32 -31 35 0 7
47 15 80 13 22 -1 25 -6 25 -36z m695 -25 c16 -19 6 -45 -18 -45 -28 0 -56 25
-49 44 8 20 50 21 67 1z m-491 -96 c17 -6 31 -15 31 -20 0 -5 14 -9 30 -9 21
0 39 -9 55 -27 23 -26 34 -73 18 -73 -15 0 -81 26 -94 37 -8 6 -24 14 -36 17
-13 4 -23 14 -23 22 0 8 -7 14 -15 14 -8 0 -15 4 -15 9 0 5 -3 16 -6 25 -7 19
10 21 55 5z m-783 -91 c0 -10 -7 -18 -17 -18 -11 0 -16 6 -14 18 4 21 2 19 18
19 7 0 13 -9 13 -19z m974 -22 c0 -2 -7 -7 -16 -10 -8 -3 -12 -2 -9 4 6 10 25
14 25 6z m-2384 -61 c10 -8 28 -15 40 -15 11 0 26 -6 32 -12 10 -10 15 -10 21
0 14 23 23 -16 10 -41 -7 -12 -13 -24 -15 -26 -2 -2 -20 11 -40 29 -55 48 -63
20 -13 -50 21 -31 39 -58 39 -60 0 -3 -31 -5 -70 -5 -49 0 -70 4 -70 13 0 6
-5 12 -11 12 -8 0 -10 13 -6 38 4 20 2 43 -2 51 -6 9 -3 26 7 47 19 37 46 44
78 19z m1304 -5 c0 -5 -5 -10 -11 -10 -5 0 -7 5 -4 10 3 6 8 10 11 10 2 0 4
-4 4 -10z m977 -164 c35 -1 66 -6 70 -11 5 -4 2 -5 -4 -1 -8 4 -13 1 -13 -8 0
-8 -13 -29 -29 -46 -18 -20 -27 -39 -24 -51 8 -29 -21 -24 -37 7 -21 38 -50
51 -66 29 -13 -17 -60 -18 -57 0 0 6 -3 17 -8 26 -7 13 -22 16 -69 15 -62 -3
-74 1 -62 21 13 19 87 32 162 27 41 -2 103 -6 137 -8z m149 3 c8 -14 -18 -31
-30 -19 -9 9 0 30 14 30 5 0 12 -5 16 -11z m-528 -26 c-2 -10 -11 -19 -21 -21
-16 -3 -17 -1 -7 17 13 25 33 28 28 4z m-48 -18 c0 -8 -7 -15 -15 -15 -26 0
-18 20 13 29 1 1 2 -6 2 -14z m311 -141 c31 -28 90 -41 148 -33 97 14 170 -16
155 -63 -3 -10 -1 -18 5 -18 6 0 11 12 11 28 0 21 2 24 10 12 6 -10 10 -11 10
-2 0 15 52 16 68 0 7 -7 12 -21 12 -32 0 -12 5 -28 10 -36 8 -13 11 -11 16 8
4 15 14 22 30 22 30 0 48 -40 40 -89 -6 -38 -22 -53 -49 -45 -9 3 -29 -3 -45
-14 -40 -28 -54 -31 -88 -17 -18 7 -36 9 -40 5 -13 -13 -207 -30 -218 -19 -6
5 -9 30 -9 56 l1 48 -10 -49 -11 -48 -69 6 c-38 4 -94 15 -126 25 -31 10 -79
21 -106 25 -27 3 -55 11 -62 17 -8 6 -26 8 -44 4 -23 -5 -49 1 -98 21 -79 33
-92 41 -92 61 0 12 8 14 33 9 28 -5 38 -2 62 24 16 16 37 30 47 30 10 0 18 5
18 10 0 6 10 8 24 4 16 -4 35 3 62 21 29 20 48 26 74 22 19 -2 62 3 95 12 65
18 111 16 136 -5z m-2080 -47 c-8 -8 -14 -8 -22 0 -9 9 -7 19 7 40 l19 28 3
-29 c2 -16 -1 -33 -7 -39z m1224 -54 c4 -13 13 -23 19 -23 14 0 30 -14 97 -86
26 -28 49 -59 53 -71 11 -35 46 -73 67 -73 12 0 27 -13 37 -30 11 -20 23 -28
34 -24 23 7 108 -16 140 -38 16 -11 44 -18 71 -18 25 0 48 -4 52 -9 3 -5 16
-8 30 -5 13 2 27 0 30 -6 10 -17 42 -11 48 9 6 23 -1 34 -31 50 -30 16 -27 55
5 59 12 2 27 9 33 17 12 14 60 6 84 -14 7 -6 16 -8 19 -5 3 4 14 3 24 0 15 -6
15 -8 3 -16 -12 -8 -9 -10 13 -11 15 -1 36 -2 48 -3 25 -1 35 -18 44 -74 4
-24 13 -46 20 -48 20 -8 85 23 85 40 0 9 4 16 10 16 19 0 -1 26 -22 27 -24 2
-45 19 -35 29 4 4 18 2 32 -4 21 -10 27 -9 37 8 13 21 58 28 58 9 0 -6 6 -9
14 -6 7 3 23 -1 35 -10 18 -12 20 -18 10 -30 -8 -8 -21 -12 -35 -9 -18 5 -23
1 -27 -22 -3 -15 -8 -37 -12 -49 -6 -18 0 -26 35 -48 36 -23 49 -26 91 -20
l49 7 0 -31 c0 -27 -3 -31 -28 -31 -16 0 -37 9 -47 20 -13 15 -22 17 -36 10
-10 -6 -34 -10 -54 -10 -20 0 -45 -5 -56 -10 -18 -10 -134 -15 -184 -9 -11 1
-42 2 -68 1 -44 -2 -49 -5 -58 -32 -14 -38 -49 -42 -49 -5 0 27 -9 32 -27 14
-6 -6 -21 -16 -34 -23 -27 -14 -46 -42 -35 -53 4 -4 16 3 27 16 l19 23 1 -38
c1 -22 0 -43 -2 -49 -1 -5 -4 -34 -5 -63 -1 -46 -6 -58 -35 -88 -28 -29 -39
-34 -81 -34 -41 0 -48 3 -48 19 0 11 5 23 10 26 6 3 10 15 10 25 0 10 10 26
22 34 27 19 14 38 -20 30 -14 -4 -22 -14 -22 -28 0 -39 -28 -100 -49 -110 -16
-7 -26 -5 -40 8 -10 9 -22 16 -27 15 -23 -4 -34 3 -34 21 0 21 -27 40 -59 40
-14 0 -21 9 -26 31 -4 18 -16 35 -30 41 -18 8 -25 20 -27 47 -2 28 -7 36 -23
36 -12 0 -20 7 -20 17 0 10 -6 23 -13 30 -6 6 -12 19 -12 27 -1 28 -38 63 -59
56 -27 -8 -34 9 -20 50 11 30 10 37 -4 53 -9 10 -17 24 -17 30 0 7 -4 12 -10
12 -5 0 -10 6 -10 14 0 8 -12 28 -26 45 -28 34 -26 66 7 76 24 8 25 40 0 91
-15 31 -17 49 -11 89 6 38 4 54 -6 66 -19 21 -18 28 9 38 18 7 23 5 28 -13 3
-11 9 -31 14 -43z m1875 -70 c22 -31 43 -74 46 -95 4 -21 10 -38 15 -38 5 0 9
-5 9 -11 0 -8 -5 -7 -16 2 -13 11 -18 10 -32 -8 -10 -12 -26 -23 -37 -25 -12
-2 -23 -15 -28 -33 -20 -65 -47 -82 -57 -35 -6 32 -40 70 -61 70 -21 0 -32 26
-20 49 5 9 13 45 17 78 6 58 8 62 35 68 16 4 29 13 29 21 0 9 11 14 29 14 25
0 37 -10 71 -57z m-2120 -123 c0 -11 -4 -20 -9 -20 -5 0 -7 9 -4 20 3 11 7 20
9 20 2 0 4 -9 4 -20z m1990 -174 c0 -19 -4 -22 -25 -18 -29 5 -30 9 -9 33 20
22 34 16 34 -15z"/>
<path d="M8615 15695 c49 -18 45 -18 45 0 0 11 -11 15 -42 15 l-43 -1 40 -14z"/>
<path d="M8480 15390 c0 -5 5 -10 10 -10 6 0 10 5 10 10 0 6 -4 10 -10 10 -5
0 -10 -4 -10 -10z"/>
<path d="M7540 14510 c0 -5 5 -10 11 -10 5 0 7 5 4 10 -3 6 -8 10 -11 10 -2 0
-4 -4 -4 -10z"/>
<path d="M7780 13955 c0 -8 9 -15 20 -15 13 0 18 5 14 15 -4 8 -12 15 -20 15
-8 0 -14 -7 -14 -15z"/>
<path d="M7956 13524 c-8 -21 1 -34 24 -34 10 0 21 4 24 9 10 16 -5 41 -24 41
-10 0 -21 -7 -24 -16z"/>
<path d="M7886 13164 c-8 -22 -8 -24 8 -24 15 0 28 24 19 34 -11 10 -21 7 -27
-10z"/>
<path d="M8765 12050 c3 -5 8 -10 11 -10 2 0 4 5 4 10 0 6 -5 10 -11 10 -5 0
-7 -4 -4 -10z"/>
<path d="M8023 11728 c-23 -11 -31 -28 -13 -28 6 0 10 -9 10 -19 0 -16 5 -18
28 -12 21 6 28 14 30 39 4 35 -12 41 -55 20z"/>
<path d="M6315 12600 c-3 -5 -3 -10 2 -10 4 0 2 -4 -6 -9 -12 -8 -12 -13 3
-35 9 -14 23 -26 31 -26 20 0 20 49 1 56 -8 3 -12 12 -9 20 6 16 -12 19 -22 4z"/>
<path d="M6370 12496 c0 -2 7 -9 15 -16 13 -11 14 -10 9 4 -5 14 -24 23 -24
12z"/>
<path d="M6572 10919 c-49 -15 -160 -131 -209 -219 -98 -176 -149 -239 -441
-540 -74 -76 -146 -143 -160 -151 -15 -7 -63 -38 -107 -69 -107 -75 -132 -85
-301 -130 -42 -11 -101 -31 -131 -45 -31 -14 -64 -25 -74 -25 -20 0 -51 -7
-187 -40 -45 -11 -90 -20 -100 -20 -35 -1 -183 -77 -236 -121 -68 -56 -164
-98 -326 -141 -41 -11 -91 -24 -110 -29 -19 -6 -54 -14 -77 -19 -23 -5 -50
-14 -60 -19 -68 -39 -142 -54 -303 -61 -163 -8 -226 -17 -265 -37 -11 -6 -49
-21 -84 -33 -127 -45 -336 -237 -463 -426 -90 -135 -123 -202 -143 -293 -8
-42 -20 -95 -25 -119 -6 -23 -10 -64 -10 -91 0 -27 -7 -65 -15 -84 -10 -24
-15 -69 -15 -129 0 -68 -5 -101 -17 -123 -13 -23 -18 -69 -23 -205 -4 -127
-10 -182 -20 -200 -13 -21 -15 -92 -15 -430 0 -382 5 -500 36 -765 11 -102 25
-312 37 -585 5 -102 14 -197 20 -212 6 -15 16 -96 22 -180 17 -267 46 -483 82
-622 11 -44 24 -102 29 -130 8 -50 19 -102 37 -181 5 -22 16 -56 25 -75 8 -19
23 -71 32 -115 10 -44 21 -98 26 -120 5 -22 14 -67 19 -100 19 -116 28 -160
39 -185 6 -14 20 -70 32 -125 39 -192 27 -153 177 -580 130 -372 145 -412 167
-460 13 -27 26 -60 30 -73 4 -13 24 -58 44 -100 21 -42 46 -95 55 -117 10 -22
35 -74 56 -115 21 -41 48 -95 61 -120 12 -25 26 -52 30 -60 5 -8 36 -69 70
-135 34 -66 65 -124 69 -130 4 -5 40 -73 80 -150 40 -77 85 -158 100 -180 15
-22 34 -53 42 -70 19 -38 29 -165 17 -230 -4 -27 -12 -75 -18 -105 -5 -30 -16
-86 -26 -125 -45 -191 -62 -335 -76 -650 -5 -116 -12 -236 -15 -267 l-6 -58
4397 0 4398 0 -7 60 c-4 32 -13 150 -21 262 -7 112 -18 235 -24 273 -39 261
-40 309 -8 355 41 61 70 76 145 71 292 -18 1208 13 1457 50 39 5 156 14 260
19 105 5 213 14 240 19 49 11 165 26 295 40 85 9 157 47 238 125 125 119 189
243 250 481 47 181 70 325 82 511 15 236 27 347 56 509 28 148 27 190 -2 346
-23 125 -82 299 -124 364 -21 33 -59 98 -85 145 -27 47 -117 189 -200 315 -84
127 -174 266 -200 310 -44 74 -133 213 -242 376 -34 51 -47 82 -57 140 -11 60
-28 98 -85 199 -39 69 -89 163 -112 210 -23 47 -66 114 -95 150 -30 35 -54 71
-54 80 0 8 -16 33 -36 55 -20 22 -43 50 -51 63 -8 12 -20 22 -26 22 -16 0
-342 331 -409 415 -106 133 -141 208 -183 397 -26 114 -35 135 -114 268 -28
47 -61 114 -72 150 -12 36 -37 95 -55 132 -19 37 -39 89 -44 114 -10 46 -114
282 -192 439 -92 185 -222 391 -316 500 -52 61 -120 155 -152 210 -53 91 -171
257 -244 342 -15 18 -40 36 -55 40 -14 3 -47 17 -72 30 -26 13 -73 28 -105 33
-33 5 -75 15 -94 21 -19 6 -73 15 -120 20 -152 16 -204 25 -250 41 -115 40
-181 59 -255 73 -132 24 -245 60 -330 103 -44 22 -111 52 -150 67 -89 33 -403
109 -515 124 -97 13 -294 56 -359 79 -55 19 -116 73 -142 126 -18 38 -66 109
-147 217 -19 24 -43 61 -54 82 -28 57 -32 39 -9 -41 25 -82 26 -147 6 -226
-23 -90 -154 -438 -176 -469 -11 -15 -24 -53 -30 -84 -6 -31 -19 -73 -29 -93
-11 -19 -35 -89 -54 -155 -27 -93 -36 -145 -40 -233 -3 -62 -9 -119 -13 -127
-5 -8 -6 21 -5 64 3 58 0 86 -12 107 -15 27 -15 22 -14 -111 1 -77 4 -132 6
-122 9 41 17 10 20 -72 1 -49 10 -111 18 -138 20 -60 40 -605 24 -668 -9 -39
-20 -425 -26 -880 -1 -121 -3 -228 -3 -237 -3 -54 -44 19 -117 207 -43 111
-83 205 -155 363 -16 35 -29 65 -29 67 0 29 -306 644 -434 873 -130 232 -400
670 -541 877 -34 50 -101 149 -150 220 -49 72 -139 198 -200 280 -61 83 -178
242 -260 355 -82 113 -153 210 -158 215 -4 6 -37 51 -72 100 -189 263 -398
529 -490 625 -64 67 -125 145 -188 240 -20 30 -66 97 -102 149 -72 103 -76
124 -49 205 14 41 14 50 3 57 -16 10 -14 10 -57 -2z m6908 -5334 c79 -2 96 -5
98 -19 4 -19 -35 -55 -59 -56 -9 0 -22 -6 -28 -14 -7 -8 -32 -20 -56 -27 -25
-7 -45 -16 -45 -20 0 -6 -19 -10 -61 -11 -20 -1 -31 -9 -42 -32 -8 -17 -27
-38 -43 -46 -16 -8 -45 -27 -65 -42 -20 -15 -39 -28 -42 -28 -4 0 -17 -10 -30
-22 -13 -13 -39 -34 -58 -48 -42 -31 -98 -86 -169 -169 -60 -70 -80 -91 -85
-91 -2 0 -21 9 -42 21 -61 32 -162 131 -159 154 3 21 47 48 86 53 14 2 30 10
36 18 6 8 15 14 21 14 5 0 17 23 27 50 17 48 19 50 57 50 36 0 39 2 39 27 0
39 103 137 130 123 28 -15 96 -12 110 5 7 8 21 15 30 15 10 0 32 11 48 25 17
14 36 25 44 25 8 0 19 5 25 11 24 24 88 48 113 42 14 -3 68 -6 120 -8z m101
-445 c16 -11 -23 -100 -53 -121 -16 -12 -27 -27 -24 -35 5 -13 -37 -54 -56
-54 -5 0 -38 -29 -72 -64 -49 -49 -65 -73 -69 -102 -5 -27 -18 -50 -44 -75
-189 -182 -248 -232 -285 -245 -10 -3 -20 -15 -24 -26 -3 -12 -29 -30 -60 -44
-65 -29 -87 -63 -60 -93 9 -10 18 -31 20 -46 2 -15 12 -32 22 -38 10 -5 16 -7
12 -2 -9 10 19 38 31 30 6 -3 14 2 19 11 10 18 43 25 113 24 42 0 47 3 64 33
13 25 24 33 40 31 41 -4 65 -15 65 -30 0 -8 5 -14 11 -14 6 0 9 8 6 18 -20 61
-20 58 27 92 25 18 48 42 52 52 3 11 19 24 35 30 16 5 29 16 29 24 0 7 11 20
25 29 14 8 37 23 53 33 27 17 32 19 65 21 25 2 21 16 -8 29 -28 13 -37 59 -9
48 9 -3 20 -6 24 -6 16 0 80 -61 80 -76 0 -8 6 -11 15 -8 8 4 15 2 15 -3 0 -8
42 -33 54 -33 2 0 6 11 8 25 3 16 1 25 -7 25 -7 0 -16 8 -19 18 -15 38 -31 62
-43 62 -7 0 -13 7 -13 15 0 8 4 15 9 15 5 0 14 12 20 28 11 25 15 27 61 24 55
-4 64 -20 33 -54 -14 -16 -15 -24 -5 -50 8 -23 9 -35 1 -45 -9 -10 -7 -13 6
-13 13 0 16 -5 11 -22 -3 -13 -6 -36 -6 -53 0 -26 -6 -33 -41 -47 -39 -16 -42
-16 -65 0 -13 9 -24 22 -24 28 0 12 -24 25 -37 21 -4 -1 -6 -9 -5 -18 3 -19
-9 -29 -68 -55 -25 -10 -55 -31 -67 -45 -13 -15 -33 -30 -45 -33 -14 -4 -31
-24 -44 -49 -17 -35 -26 -43 -52 -45 -41 -4 -44 -37 -6 -54 24 -11 26 -16 21
-61 -2 -26 -8 -52 -14 -58 -10 -10 -358 -14 -385 -4 -13 5 -15 12 -9 23 4 10
11 29 15 45 6 26 5 27 -38 27 l-44 0 2 -40 c1 -26 -2 -40 -10 -40 -7 0 -14 5
-16 10 -2 7 -17 5 -41 -5 l-37 -15 0 46 c0 43 2 46 23 41 12 -2 30 -8 40 -12
13 -6 17 -2 17 18 0 23 -5 25 -47 30 -38 3 -52 0 -65 -14 -9 -11 -30 -19 -47
-19 -34 0 -41 -19 -16 -40 20 -16 19 -47 -1 -58 -9 -5 -15 -13 -15 -18 2 -12
-83 -22 -199 -23 -73 0 -91 2 -76 10 35 21 54 46 45 60 -12 20 -11 45 4 61 6
8 17 23 23 33 12 22 46 32 112 34 23 0 42 6 42 11 0 6 9 10 20 10 15 0 20 7
20 25 0 14 9 43 19 64 20 38 18 53 -9 65 -8 3 -3 4 12 3 21 -3 28 0 30 17 4
27 38 33 55 10 7 -10 13 -12 13 -6 0 7 -9 21 -21 33 -18 18 -22 19 -32 5 -14
-18 -53 -12 -61 10 -5 14 7 44 28 69 6 6 19 10 31 7 15 -2 25 4 35 22 7 14 11
29 7 32 -9 9 11 44 26 44 7 0 22 18 35 40 13 22 27 38 32 35 6 -4 10 0 10 8 0
8 16 24 35 36 19 11 35 25 35 31 0 5 7 10 16 10 9 0 25 11 36 25 11 14 26 25
33 25 13 0 29 17 64 68 11 16 18 19 28 10 10 -8 16 -4 24 20 7 20 21 34 41 41
16 6 32 20 35 31 4 14 14 20 35 20 31 0 118 62 118 85 0 20 34 44 65 45 52 1
65 3 65 12 0 4 18 5 40 2 30 -5 40 -3 41 7 0 8 7 -4 16 -26 9 -22 20 -42 24
-45z m-991 -100 c14 -11 40 -20 58 -20 26 0 36 -7 52 -32 24 -40 25 -46 3 -50
-11 -2 -18 -13 -18 -28 0 -18 -6 -26 -22 -28 -25 -4 -29 -12 -13 -28 15 -15
-17 -54 -58 -71 -51 -21 -134 -33 -155 -21 -16 8 -17 18 -12 66 8 68 30 122
51 122 8 0 23 -5 34 -12 29 -18 35 -3 11 30 -27 38 -27 62 -1 62 11 0 20 7 20
15 0 20 20 18 50 -5z m1419 -157 c9 -17 11 -16 30 1 20 18 22 18 40 2 11 -10
20 -25 19 -34 0 -10 3 -27 7 -39 7 -21 4 -23 -29 -23 -22 0 -53 -10 -76 -25
-22 -14 -44 -25 -50 -25 -15 0 -12 -27 4 -33 21 -8 8 -45 -17 -49 -12 -2 -28
-15 -35 -30 -7 -16 -18 -28 -24 -28 -6 0 -21 -12 -34 -27 -13 -15 -26 -24 -30
-20 -4 4 -2 13 4 19 10 10 8 16 -8 28 -19 14 -20 19 -9 70 7 30 13 71 14 90 3
58 4 60 34 60 20 0 30 -6 34 -20 6 -24 36 -26 77 -5 33 17 38 36 15 55 -8 7
-15 21 -15 31 0 24 35 25 49 2z m-656 -210 c8 -7 -208 -223 -223 -223 -27 0 0
36 96 128 106 102 115 108 127 95z m434 -125 c-3 -8 -6 -5 -6 6 -1 11 2 17 5
13 3 -3 4 -12 1 -19z m395 -64 c-1 -26 3 -53 9 -60 7 -8 7 -14 -1 -19 -5 -3
-10 -19 -10 -35 0 -22 5 -30 23 -33 14 -3 9 -5 -14 -6 -41 -1 -63 -21 -55 -49
4 -11 -6 -36 -24 -65 -16 -26 -30 -53 -30 -59 0 -13 -47 -58 -61 -58 -6 0 -8
-4 -5 -9 7 -11 -17 -21 -51 -21 -20 0 -23 3 -15 13 13 15 4 31 -21 40 -14 5
-27 -2 -47 -24 l-29 -30 -88 7 c-77 5 -90 9 -106 30 -22 28 -77 33 -97 9 -9
-11 -17 -12 -31 -4 -31 16 -22 36 36 79 30 22 55 46 55 53 1 13 76 67 122 88
22 10 33 9 62 -5 44 -21 53 -20 65 3 6 10 24 21 41 25 29 5 31 8 26 38 -3 18
-3 27 0 21 3 -7 23 -13 45 -13 34 0 39 3 39 22 0 17 3 19 12 10 18 -18 35 -14
41 9 3 12 10 18 16 14 6 -3 11 -2 11 4 0 5 10 11 23 13 15 2 22 10 22 26 0 21
24 47 33 37 3 -2 4 -25 4 -51z m-5327 -73 c141 -27 161 -36 211 -88 70 -75
140 -231 237 -534 104 -323 125 -430 129 -649 2 -143 -19 -379 -43 -464 -10
-36 -12 -38 -42 -32 -18 4 -33 10 -35 15 -1 4 -13 6 -26 4 -45 -9 -225 96
-282 163 -28 34 -111 94 -130 94 -11 0 -34 -7 -50 -14 -16 -8 -59 -18 -95 -22
-64 -6 -68 -5 -83 18 -9 14 -14 32 -11 40 5 12 -4 17 -33 22 -47 7 -100 45
-81 57 27 16 -3 22 -50 10 -63 -16 -95 -7 -130 38 -36 46 -81 134 -81 160 0
34 -21 69 -49 81 -70 29 -148 345 -106 433 13 27 21 32 55 34 22 1 47 10 57
18 54 49 95 65 151 64 53 -2 83 6 200 58 7 3 12 -2 12 -11 0 -22 28 -20 75 4
23 12 50 18 62 15 12 -3 25 -1 28 5 3 5 13 10 21 10 10 0 14 -12 14 -40 0 -28
-4 -40 -14 -40 -16 0 -49 -58 -40 -71 3 -5 18 -9 33 -9 18 0 34 -8 44 -22 8
-13 18 -20 22 -16 13 12 5 221 -11 283 -32 126 -58 202 -91 273 -39 82 -66
103 -108 84 -31 -14 -85 -16 -85 -3 0 5 14 21 32 36 29 25 36 26 107 22 42 -3
126 -14 186 -26z m4743 -84 c-20 -32 -68 -57 -68 -36 0 13 53 59 67 59 7 0 13
5 13 12 0 6 3 9 6 6 3 -4 -5 -22 -18 -41z m-75 -64 c-7 -2 -13 -11 -13 -18 0
-16 -61 -65 -81 -65 -7 0 6 20 31 45 25 24 52 44 60 44 10 0 11 -2 3 -6z
m-1163 -142 c0 -11 3 -26 6 -35 5 -13 -1 -16 -29 -16 -26 0 -36 5 -40 20 -6
24 17 50 44 50 12 0 19 -7 19 -19z m-4360 -376 c0 -9 -9 -15 -21 -15 -18 0
-19 2 -9 15 7 8 16 15 21 15 5 0 9 -7 9 -15z m-95 -4 c3 -5 1 -12 -5 -16 -5
-3 -10 -13 -10 -22 0 -9 -8 -22 -17 -29 -10 -7 -15 -15 -11 -19 7 -8 88 44 88
56 0 5 14 1 32 -9 29 -17 34 -27 59 -123 26 -103 34 -125 90 -247 23 -50 29
-76 29 -132 0 -61 -2 -70 -18 -70 -25 0 -113 32 -212 78 -47 21 -125 51 -175
66 -49 15 -99 31 -110 36 -11 5 -46 16 -77 24 -79 20 -94 30 -124 82 -20 34
-25 53 -21 79 4 24 2 35 -6 35 -7 0 -19 8 -27 18 -32 39 -60 82 -60 91 0 11
47 61 58 61 4 0 13 9 20 20 7 11 17 20 22 20 6 0 10 -9 10 -20 0 -13 7 -20 20
-20 22 0 26 -20 8 -38 -17 -17 17 -27 48 -14 17 8 24 8 24 1 0 -7 14 -8 43 -3
23 4 55 7 71 6 19 -1 37 6 48 18 14 15 32 20 73 20 53 0 77 12 54 26 -8 4 -4
11 12 20 28 16 56 18 64 5z m-395 -26 c0 -8 -4 -15 -10 -15 -5 0 -10 7 -10 15
0 8 5 15 10 15 6 0 10 -7 10 -15z m106 -32 c-11 -11 -19 6 -11 24 8 17 8 17
12 0 3 -10 2 -21 -1 -24z m650 -611 c-10 -10 -29 15 -21 28 6 9 10 8 17 -4 6
-10 7 -20 4 -24z"/>
<path d="M12660 4336 c0 -2 7 -6 15 -10 8 -3 15 -1 15 4 0 6 -7 10 -15 10 -8
0 -15 -2 -15 -4z"/>
<path d="M12948 4183 c7 -3 16 -2 19 1 4 3 -2 6 -13 5 -11 0 -14 -3 -6 -6z"/>
<path d="M13767 4213 c-4 -3 -7 -16 -7 -29 0 -23 -17 -34 -52 -34 -20 0 -19
-1 5 -26 33 -32 53 -26 90 27 23 32 27 43 17 54 -13 16 -42 20 -53 8z"/>
<path d="M8717 3136 c-3 -8 -23 -20 -44 -26 -42 -14 -63 -28 -63 -41 0 -13 28
-11 92 8 60 18 69 30 42 57 -19 19 -20 20 -27 2z"/>
<path d="M8565 3050 c4 -6 11 -8 16 -5 14 9 11 15 -7 15 -8 0 -12 -5 -9 -10z"/>
<path d="M7340 3630 c0 -5 5 -10 10 -10 6 0 10 5 10 10 0 6 -4 10 -10 10 -5 0
-10 -4 -10 -10z"/>
<path d="M9612 9170 c0 -19 2 -27 5 -17 2 9 2 25 0 35 -3 9 -5 1 -5 -18z"/>
</g>
</svg>
